
<svg version="1.0" xmlns="http://www.w3.org/2000/svg"
 width="120.000000pt" height="90.000000pt" viewBox="0 0 120.000000 90.000000"
 preserveAspectRatio="xMidYMid meet">
<metadata>
Created by potrace 1.16, written by Peter Selinger 2001-2019
</metadata>
<g transform="translate(0.000000,90.000000) scale(0.100000,-0.100000)"
fill="#000000" stroke="none">
<path d="M472 791 c-77 -29 -172 -108 -157 -131 5 -8 17 -2 39 18 78 73 149
102 251 103 64 1 83 -3 140 -32 111 -55 176 -151 183 -271 3 -52 8 -68 19 -68
25 0 13 123 -19 192 -33 70 -106 145 -173 178 -70 33 -208 39 -283 11z"/>
<path d="M140 461 c0 -164 4 -261 10 -261 6 0 11 90 12 235 l3 236 117 -96
118 -96 112 92 c62 51 115 94 117 96 3 2 0 8 -7 15 -8 8 -38 -11 -118 -76 -93
-76 -109 -85 -123 -73 -39 33 -217 174 -228 181 -10 6 -13 -48 -13 -253z"/>
<path d="M1038 465 l-3 -236 -117 96 -118 96 -112 -92 c-62 -51 -115 -94 -117
-96 -3 -2 0 -8 7 -15 8 -8 38 11 118 76 93 76 109 85 123 73 39 -33 217 -174
229 -181 9 -6 12 48 12 253 0 164 -4 261 -10 261 -6 0 -11 -90 -12 -235z"/>
<path d="M242 402 c6 -86 42 -156 113 -219 80 -73 122 -88 245 -88 95 0 110 3
160 28 66 34 124 87 111 100 -6 6 -22 -1 -44 -20 -86 -75 -227 -105 -334 -69
-119 40 -211 153 -221 271 -3 49 -8 65 -20 65 -12 0 -14 -12 -10 -68z"/>
</g>
</svg>
